<svg xmlns="http://www.w3.org/2000/svg" viewBox="0 0 128 128">
  <defs>
    <linearGradient id="bg" x1="0" y1="0" x2="128" y2="128">
      <stop offset="0" stop-color="#2563eb"/>
      <stop offset="1" stop-color="#1d4ed8"/>
    </linearGradient>
  </defs>
  <rect width="128" height="128" rx="24" fill="url(#bg)"/>
  <g fill="none" stroke="#fff" stroke-width="3" stroke-linecap="round">
    <path d="M24 48 L64 28 L104 48" stroke-opacity=".6"/>
    <path d="M24 64 L64 44 L104 64" stroke-opacity=".8"/>
    <path d="M24 80 L64 60 L104 80"/>
    <path d="M24 96 L64 76 L104 96" stroke-opacity=".9"/>
  </g>
  <g fill="none" stroke="#93c5fd" stroke-width="2.5" stroke-linecap="round">
    <path d="M40 54 L40 102"/>
    <path d="M64 44 L64 92"/>
    <path d="M88 54 L88 102"/>
  </g>
  <g fill="#fff" opacity=".9">
    <circle cx="40" cy="48" r="5"/>
    <circle cx="64" cy="38" r="5"/>
    <circle cx="88" cy="48" r="5"/>
  </g>
  <path d="M38 72 L44 72 L44 86 L38 86 Z" fill="#22d3ee" opacity=".8"/>
  <path d="M58 60 L70 60 L70 80 L58 80 Z" fill="#22d3ee" opacity=".8"/>
  <path d="M82 68 L94 68 L94 86 L82 86 Z" fill="#22d3ee" opacity=".8"/>
  <path d="M12 32 L12 118 L116 118 L116 32" fill="none" stroke="#60a5fa" stroke-width="3" stroke-linecap="round"/>
  <text x="64" y="118" text-anchor="middle" fill="#93c5fd" font-family="monospace" font-size="11" font-weight="bold">DRIFT</text>
</svg>
